<svg width="1000" height="1000" viewBox="0 0 1000 1000" fill="none" xmlns="http://www.w3.org/2000/svg">
<path d="M475 612.55L439.645 577.195C430.267 567.817 417.55 562.55 404.289 562.55H175C161.193 562.55 150 573.742 150 587.55V991.667C150 996.269 153.731 1000 158.333 1000H841.667C846.269 1000 850 996.269 850 991.667V637.55C850 623.742 838.807 612.55 825 612.55H475Z" fill="#FFB900"/>
<path d="M425 51.5H649.379L723.939 126.061L798.5 200.621V575V948.5H500H201.5V500V51.5H425Z" fill="url(#paint0_linear_6_73)" stroke="#A5A5A5" stroke-width="3"/>
<path d="M721.59 547.151V545.155L719.594 545.151L705.686 545.122L705.684 545.122L693.745 545.085L693.712 538.54L693.712 538.536L693.689 532H729.255H764.821L764.799 538.536L764.799 538.54L764.765 545.085L752.914 545.122L752.912 545.122L739.062 545.151L737.066 545.155V547.151V588.576V628H729.328H721.59V588.576V547.151Z" fill="url(#paint1_linear_6_73)" stroke="black" stroke-width="4"/>
<path d="M680.208 587.92L680.206 587.922L675.976 592.268L675.015 593.255L675.595 594.504L683.821 612.235C686.356 617.713 688.41 622.184 689.83 625.317C690.307 626.369 690.71 627.267 691.036 628H683.136H673.761L670.953 621.017C670.952 621.016 670.952 621.015 670.952 621.014C669.944 618.491 668.526 614.968 667.125 611.484C666.001 608.691 664.888 605.924 664.004 603.718L664.004 603.717L660.37 594.662L659.866 593.407H658.514H644.72H630.927H628.927V595.407V612.703V628H621.261H613.595V580V532H643.616H674.793L679.338 536.545L683.868 541.076V562.616V584.171L680.208 587.92ZM668.392 547.151V545.151H666.392H648.659H630.927H628.927V547.151V562.849V578.547V580.547H630.927H648.659H666.392H668.392V578.547V562.849V547.151Z" fill="url(#paint2_linear_6_73)" stroke="black" stroke-width="4"/>
<path d="M527.137 623.455L522.607 618.924V580V541.076L527.152 536.53L531.682 532H559.415H587.148L591.618 536.47L591.62 536.472L596.078 540.943V580V619.057L591.62 623.528L591.618 623.53L587.148 628H559.415H531.682L527.137 623.455ZM580.601 547.151V545.151H578.601H559.27H539.938H537.938V547.151V580V612.849V614.849H539.938H559.27H578.601H580.601V612.849V580V547.151Z" fill="url(#paint3_linear_6_73)" stroke="black" stroke-width="4"/>
<path d="M432.2 601.767H439.909H447.591L447.56 606.44L447.517 613.126L447.504 615.14H449.517H468.848H488.194H490.194V613.14V600.422V587.703V585.703H488.194H464.313H441.275L436.73 581.158L432.2 576.628V558.852V541.076L436.745 536.53L441.275 532H469.008H496.741L501.211 536.47L501.213 536.472L505.671 540.943V550.029V557.942H497.933H490.194V553.401V546.86V544.86H488.194H468.863H449.531H447.531V546.86V558.852V570.843V572.843H449.531H473.485H496.595L501.14 577.388L505.671 581.919V600.494V619.057L501.213 623.528L501.211 623.53L496.741 628H469.008H441.275L436.73 623.455L432.2 618.924V609.753V601.767Z" fill="url(#paint4_linear_6_73)" stroke="black" stroke-width="4"/>
<path d="M398 687.5V873H337.5H277V500V127H500H723V248H562.5H400H398V250V312.5V375V377H400H500H598V437.5V498H500H400H398V500V687.5Z" fill="url(#paint5_linear_6_73)" stroke="black" stroke-width="4"/>
<g filter="url(#filter0_d_6_73)">
<path d="M725 125L800 200H725H650V125V50L725 125Z" fill="url(#paint6_linear_6_73)"/>
<path d="M723.939 126.061L796.379 198.5H725H651.5V125V53.6213L723.939 126.061Z" stroke="#A5A5A5" stroke-width="3"/>
</g>
<path d="M475 612.55L439.645 647.905C430.267 657.282 417.55 662.55 404.289 662.55H150L150 991.667C150 996.269 153.731 1000 158.333 1000H841.667C846.269 1000 850 996.269 850 991.667V637.55C850 623.742 838.807 612.55 825 612.55H475Z" fill="#FFD75E"/>
<path d="M475 612.55L439.645 647.905C430.267 657.282 417.55 662.55 404.289 662.55H150L150 991.667C150 996.269 153.731 1000 158.333 1000H841.667C846.269 1000 850 996.269 850 991.667V637.55C850 623.742 838.807 612.55 825 612.55H475Z" fill="url(#paint7_linear_6_73)"/>
<path opacity="0.4" d="M150 662.55V670.883H405.004C420.475 670.883 435.313 664.737 446.252 653.797L487.5 612.55H475L439.645 647.905C430.267 657.282 417.55 662.55 404.289 662.55H150Z" fill="white"/>
<g filter="url(#filter1_d_6_73)">
<path d="M705.5 973.388V967.284H711.959H718.418V973.388V979.493H711.959H705.5V973.388Z" fill="#FFB900" stroke="black"/>
<path d="M755.632 940.734C757.009 938.453 758.899 935.308 760.97 931.845L768.36 919.508L774.131 919.5H774.132H779.677V949.496V979.493H774.282H768.886L768.869 959.407V959.407L768.842 938.813L768.84 937.004L767.913 938.558L760.652 950.729L760.652 950.73L753.534 962.649L752.986 962.631L752.985 962.631L752.408 962.613L745.234 950.623L737.92 938.398L736.993 936.848L736.991 938.654L736.964 959.318V959.319L736.947 979.493H731.596H726.245V949.496V919.5H731.773H737.509L744.917 931.846L744.917 931.846C746.996 935.308 748.891 938.456 750.27 940.738C750.96 941.879 751.52 942.804 751.91 943.444C752.105 943.764 752.258 944.014 752.363 944.183C752.415 944.268 752.457 944.335 752.486 944.381C752.501 944.403 752.514 944.424 752.525 944.441C752.53 944.448 752.539 944.46 752.548 944.473C752.552 944.478 752.564 944.493 752.579 944.511C752.586 944.518 752.605 944.539 752.632 944.561C752.646 944.573 752.685 944.6 752.709 944.614C752.751 944.635 752.872 944.671 752.952 944.677H753.033L753.11 944.652C753.161 944.632 753.234 944.59 753.259 944.572C753.273 944.561 753.297 944.54 753.306 944.531C753.323 944.514 753.335 944.499 753.34 944.493C753.351 944.48 753.359 944.468 753.362 944.464C753.37 944.453 753.377 944.443 753.382 944.436C753.392 944.42 753.405 944.4 753.419 944.378C753.448 944.332 753.489 944.265 753.542 944.18C753.647 944.01 753.799 943.76 753.994 943.44C754.384 942.8 754.944 941.875 755.632 940.734Z" fill="#FFB900" stroke="black"/>
<path d="M800.212 970.032L815.079 970.05H815.079L829.458 970.075L829.482 974.791L829.482 974.792L829.498 979.493H809.211H788.922V949.496V919.5H809.211H829.498L829.482 924.21L829.482 924.211L829.458 928.918L815.088 928.943H815.088L800.212 928.961L799.713 928.962V929.461V936.686V943.911V944.411H800.213H811.383H822.053V949.098V953.784L811.409 953.801H811.408L800.256 953.828L799.759 953.829L799.757 954.326L799.731 961.924L799.731 961.924L799.713 969.531L799.712 970.031L800.212 970.032Z" fill="#FFB900" stroke="black"/>
</g>
<defs>
<filter id="filter0_d_6_73" x="646" y="50" width="158" height="158" filterUnits="userSpaceOnUse" color-interpolation-filters="sRGB">
<feFlood flood-opacity="0" result="BackgroundImageFix"/>
<feColorMatrix in="SourceAlpha" type="matrix" values="0 0 0 0 0 0 0 0 0 0 0 0 0 0 0 0 0 0 127 0" result="hardAlpha"/>
<feOffset dy="4"/>
<feGaussianBlur stdDeviation="2"/>
<feComposite in2="hardAlpha" operator="out"/>
<feColorMatrix type="matrix" values="0 0 0 0 0 0 0 0 0 0 0 0 0 0 0 0 0 0 0.25 0"/>
<feBlend mode="normal" in2="BackgroundImageFix" result="effect1_dropShadow_6_73"/>
<feBlend mode="normal" in="SourceGraphic" in2="effect1_dropShadow_6_73" result="shape"/>
</filter>
<filter id="filter1_d_6_73" x="701" y="919" width="133" height="68.9929" filterUnits="userSpaceOnUse" color-interpolation-filters="sRGB">
<feFlood flood-opacity="0" result="BackgroundImageFix"/>
<feColorMatrix in="SourceAlpha" type="matrix" values="0 0 0 0 0 0 0 0 0 0 0 0 0 0 0 0 0 0 127 0" result="hardAlpha"/>
<feOffset dy="4"/>
<feGaussianBlur stdDeviation="2"/>
<feComposite in2="hardAlpha" operator="out"/>
<feColorMatrix type="matrix" values="0 0 0 0 0 0 0 0 0 0 0 0 0 0 0 0 0 0 0.25 0"/>
<feBlend mode="normal" in2="BackgroundImageFix" result="effect1_dropShadow_6_73"/>
<feBlend mode="normal" in="SourceGraphic" in2="effect1_dropShadow_6_73" result="shape"/>
</filter>
<linearGradient id="paint0_linear_6_73" x1="500" y1="50" x2="500" y2="950" gradientUnits="userSpaceOnUse">
<stop stop-color="#FAFBFB"/>
<stop offset="1" stop-color="#F5F6F7"/>
</linearGradient>
<linearGradient id="paint1_linear_6_73" x1="729.255" y1="530" x2="729.255" y2="630" gradientUnits="userSpaceOnUse">
<stop stop-color="#ADADAD"/>
<stop offset="1" stop-color="#9D9C9C"/>
</linearGradient>
<linearGradient id="paint2_linear_6_73" x1="652.729" y1="530" x2="652.729" y2="630" gradientUnits="userSpaceOnUse">
<stop stop-color="#ADADAD"/>
<stop offset="1" stop-color="#9D9C9C"/>
</linearGradient>
<linearGradient id="paint3_linear_6_73" x1="559.342" y1="530" x2="559.342" y2="630" gradientUnits="userSpaceOnUse">
<stop stop-color="#ADADAD"/>
<stop offset="1" stop-color="#9D9C9C"/>
</linearGradient>
<linearGradient id="paint4_linear_6_73" x1="468.935" y1="530" x2="468.935" y2="630" gradientUnits="userSpaceOnUse">
<stop stop-color="#ADADAD"/>
<stop offset="1" stop-color="#9D9C9C"/>
</linearGradient>
<linearGradient id="paint5_linear_6_73" x1="500" y1="125" x2="500" y2="875" gradientUnits="userSpaceOnUse">
<stop stop-color="#ADADAD"/>
<stop offset="1" stop-color="#9D9C9C"/>
</linearGradient>
<linearGradient id="paint6_linear_6_73" x1="725" y1="50" x2="725" y2="200" gradientUnits="userSpaceOnUse">
<stop stop-color="#EFEFEF"/>
<stop offset="1" stop-color="#E1E1E1"/>
</linearGradient>
<linearGradient id="paint7_linear_6_73" x1="500" y1="612.55" x2="500" y2="1062.55" gradientUnits="userSpaceOnUse">
<stop stop-color="white" stop-opacity="0"/>
<stop offset="1" stop-color="#FFD75E" stop-opacity="0.3"/>
</linearGradient>
</defs>
</svg>
